<svg viewBox="0 0 17 10" fill="none" xmlns="http://www.w3.org/2000/svg">
<path d="M4.75875 3.69067C4.75875 3.888 4.78008 4.04734 4.81741 4.164C4.86008 4.28134 4.91341 4.40934 4.98808 4.548C5.01475 4.59 5.02541 4.63267 5.02541 4.67C5.02541 4.72334 4.99341 4.77667 4.92408 4.83L4.58875 5.05334C4.54822 5.08256 4.5 5.09925 4.45008 5.10134C4.39675 5.10134 4.34341 5.07467 4.29075 5.02667C4.21913 4.94964 4.15506 4.86592 4.09941 4.77667C4.03982 4.67443 3.98466 4.56966 3.93408 4.46267C3.51941 4.952 2.99741 5.19667 2.36941 5.19667C1.92275 5.19667 1.56608 5.06934 1.30541 4.814C1.04475 4.558 0.91208 4.218 0.91208 3.792C0.91208 3.34 1.07141 2.972 1.39608 2.696C1.72075 2.41934 2.15141 2.28067 2.69941 2.28067C2.88075 2.28067 3.06675 2.29667 3.26341 2.32334C3.46075 2.35 3.66341 2.39267 3.87541 2.44067V2.052C3.87541 1.64734 3.79075 1.36534 3.62541 1.20067C3.45541 1.03534 3.16808 0.956004 2.75875 0.956004C2.57208 0.956004 2.38008 0.97667 2.18341 1.02467C1.98675 1.07267 1.79475 1.13134 1.60875 1.206C1.5481 1.23316 1.48575 1.25632 1.42208 1.27534C1.39466 1.28417 1.36619 1.28933 1.33741 1.29067C1.26275 1.29067 1.22541 1.23734 1.22541 1.126V0.865337C1.22541 0.780003 1.23608 0.716004 1.26275 0.67867C1.30302 0.630269 1.3542 0.592113 1.41208 0.567337C1.59808 0.471337 1.82141 0.391337 2.08208 0.327337C2.35343 0.25787 2.63266 0.22403 2.91275 0.22667C3.54608 0.22667 4.00875 0.37067 4.30675 0.658004C4.59941 0.94467 4.74808 1.38134 4.74808 1.96667V3.69067H4.75875ZM2.59875 4.5C2.77408 4.5 2.95475 4.468 3.14675 4.404C3.33808 4.34 3.50875 4.22334 3.65208 4.064C3.73741 3.96267 3.80141 3.85067 3.83341 3.72267C3.86475 3.59534 3.88675 3.44067 3.88675 3.26V3.03667C3.72524 2.9973 3.56165 2.96703 3.39675 2.946C3.23091 2.92493 3.06392 2.91425 2.89675 2.914C2.54008 2.914 2.27941 2.98334 2.10341 3.12734C1.92808 3.27067 1.84341 3.47267 1.84341 3.73867C1.84341 3.98867 1.90675 4.17534 2.04008 4.30267C2.16741 4.436 2.35341 4.5 2.59875 4.5ZM6.87208 5.07467C6.77608 5.07467 6.71208 5.05867 6.66941 5.02134C6.62675 4.98934 6.58941 4.91467 6.55741 4.814L5.30741 0.700004C5.2831 0.631022 5.26699 0.559418 5.25941 0.48667C5.25941 0.401337 5.30208 0.353337 5.38675 0.353337H5.90875C6.00941 0.353337 6.07875 0.370004 6.11541 0.40667C6.15875 0.43867 6.19075 0.513337 6.22208 0.61467L7.11675 4.13734L7.94675 0.61467C7.97341 0.508003 8.00541 0.43867 8.04741 0.40667C8.11138 0.367445 8.18585 0.348827 8.26075 0.353337H8.68608C8.78741 0.353337 8.85675 0.370004 8.89941 0.40667C8.94141 0.43867 8.97941 0.513337 9.00008 0.61467L9.84075 4.18L10.7614 0.61467C10.7934 0.508003 10.8307 0.43867 10.8681 0.40667C10.9298 0.367464 11.0024 0.348795 11.0754 0.353337H11.5707C11.6554 0.353337 11.7041 0.39667 11.7041 0.48667C11.7041 0.513337 11.6981 0.540003 11.6927 0.572003C11.6844 0.617494 11.6719 0.662125 11.6554 0.705337L10.3734 4.81867C10.3414 4.92534 10.3041 4.994 10.2614 5.026C10.2013 5.06454 10.1307 5.0832 10.0594 5.07934H9.60141C9.50075 5.07934 9.43141 5.06334 9.38808 5.026C9.34608 4.98867 9.30875 4.91934 9.28808 4.81267L8.46275 1.38067L7.64275 4.80734C7.61608 4.914 7.58475 4.98334 7.54275 5.02067C7.49941 5.058 7.42475 5.074 7.32941 5.074L6.87208 5.07467ZM13.7094 5.218C13.4327 5.218 13.1561 5.186 12.8901 5.12267C12.6241 5.05867 12.4167 4.98934 12.2781 4.90934C12.1927 4.862 12.1347 4.80867 12.1134 4.76067C12.0926 4.71361 12.0817 4.66278 12.0814 4.61134V4.34C12.0814 4.22867 12.1241 4.17534 12.2034 4.17534C12.2354 4.17534 12.2674 4.18067 12.2994 4.19134C12.3314 4.202 12.3794 4.22334 12.4327 4.24467C12.6134 4.32467 12.8101 4.388 13.0181 4.43067C13.2307 4.47334 13.4381 4.49467 13.6514 4.49467C13.9861 4.49467 14.2474 4.436 14.4281 4.31867C14.5147 4.26635 14.5859 4.19203 14.6345 4.10328C14.6831 4.01452 14.7073 3.91449 14.7047 3.81334C14.7067 3.74483 14.695 3.67661 14.6704 3.61264C14.6458 3.54867 14.6088 3.49022 14.5614 3.44067C14.4654 3.34 14.2841 3.24934 14.0234 3.164L13.2521 2.924C12.8634 2.802 12.5761 2.62134 12.4007 2.382C12.2291 2.16113 12.1354 1.88971 12.1341 1.61C12.1341 1.38667 12.1827 1.19 12.2781 1.01934C12.3741 0.849337 12.5014 0.700004 12.6614 0.583337C12.8214 0.46067 13.0014 0.370004 13.2147 0.30667C13.4281 0.24267 13.6514 0.216003 13.8854 0.216003C14.0021 0.216003 14.1247 0.221337 14.2421 0.237337C14.3641 0.253337 14.4754 0.27467 14.5874 0.296003C14.6941 0.32267 14.7954 0.349337 14.8907 0.38067C14.9867 0.41267 15.0614 0.44467 15.1147 0.47667C15.1776 0.508298 15.2323 0.553911 15.2747 0.610003C15.3091 0.661773 15.3257 0.723307 15.3221 0.785337V1.03534C15.3221 1.14734 15.2794 1.206 15.1994 1.206C15.1286 1.19788 15.06 1.17615 14.9974 1.142C14.6759 0.999984 14.3275 0.929253 13.9761 0.93467C13.6727 0.93467 13.4327 0.982004 13.2681 1.08334C13.1027 1.18467 13.0181 1.33867 13.0181 1.55667C13.0181 1.706 13.0714 1.834 13.1781 1.93467C13.2841 2.036 13.4807 2.13734 13.7627 2.228L14.5187 2.46667C14.9014 2.58934 15.1787 2.76 15.3434 2.978C15.5081 3.196 15.5881 3.446 15.5881 3.72267C15.5881 3.95134 15.5401 4.15934 15.4501 4.34C15.3541 4.52134 15.2261 4.68067 15.0614 4.80867C14.8961 4.942 14.6994 5.03734 14.4707 5.10667C14.2307 5.18067 13.9814 5.218 13.7094 5.218ZM14.7154 7.80467C12.9647 9.098 10.4207 9.784 8.23408 9.784C5.16875 9.784 2.40741 8.65067 0.320747 6.76667C0.15608 6.618 0.304747 6.41534 0.50208 6.53267C2.75808 7.84134 5.54141 8.63467 8.42008 8.63467C10.3627 8.63467 12.4961 8.23 14.4601 7.4C14.7527 7.26667 15.0027 7.59134 14.7154 7.80467ZM15.4447 6.974C15.2207 6.68734 13.9647 6.836 13.3954 6.90534C13.2254 6.92667 13.1987 6.77734 13.3534 6.66534C14.3534 5.96334 15.9981 6.16534 16.1894 6.39934C16.3807 6.63934 16.1361 8.28334 15.1994 9.07067C15.0561 9.19334 14.9174 9.12934 14.9814 8.97C15.1947 8.44334 15.6681 7.25667 15.4447 6.974Z" fill="currentColor"/>
</svg>
