<svg viewBox="0 0 17 16" fill="none" xmlns="http://www.w3.org/2000/svg">
<path d="M13.6791 6.2002C13.8597 6.08916 14.028 5.95937 14.1813 5.813C14.2103 5.78475 14.239 5.75612 14.2672 5.72713C14.3744 5.61784 14.4734 5.50076 14.5633 5.37687C14.655 5.25088 14.734 5.11618 14.7993 4.97473C14.8889 4.78173 14.9439 4.57446 14.9617 4.3624C15.0174 3.6384 14.5884 2.9184 13.6317 2.3378L9.77937 0L5.2889 4.30267L2.36523 7.10387L6.4203 9.56493C7.06973 9.96237 7.81565 10.1743 8.57703 10.1776C9.50757 10.1776 10.3992 9.84907 11.0571 9.2184C11.7726 8.53287 12.01 7.64567 11.5687 6.9082C11.4969 6.78852 11.4117 6.6774 11.3148 6.577C11.5516 6.62997 11.7935 6.65688 12.0362 6.65727H12.0418C12.4377 6.65796 12.8303 6.58464 13.1993 6.44107C13.3661 6.37518 13.5266 6.29457 13.6791 6.2002ZM9.92463 8.43353C9.20323 9.12467 8.0427 9.2262 7.09797 8.6538L4.2923 6.95073L6.8109 4.53713L9.66397 6.26893C10.692 6.89213 10.6356 7.75207 9.92463 8.43353ZM10.258 5.36347L7.62003 3.76193L10.025 1.45627L12.6153 3.02827C13.5839 3.6152 13.7097 4.4098 13.0093 5.08193C12.6461 5.42596 12.1793 5.64014 11.6816 5.69107C11.1839 5.74199 10.6834 5.62681 10.258 5.36347ZM11.373 12.458C10.6423 13.1581 9.64903 13.5442 8.57703 13.5442C7.73208 13.5408 6.90423 13.3057 6.18357 12.8646L2.36523 10.5492V11.4703L6.4203 13.9314C7.06969 14.329 7.81561 14.541 8.57703 14.5445C9.50757 14.5445 10.3992 14.2155 11.0571 13.5852C11.538 13.1245 11.8039 12.5722 11.792 12.0361V11.9692C11.6689 12.1461 11.5285 12.3103 11.373 12.4595V12.458ZM11.373 11.0017C10.6423 11.7019 9.64903 12.0875 8.57703 12.0875C7.73214 12.0841 6.90433 11.8492 6.18357 11.4083L2.36523 9.09333V10.0149L6.4203 12.4759C7.06969 12.8735 7.81561 13.0856 8.57703 13.0891C9.50757 13.0891 10.3992 12.7601 11.0571 12.1298C11.538 11.6691 11.8039 11.1168 11.792 10.5802V10.5137C11.6689 10.6906 11.5285 10.8548 11.373 11.004V11.0017ZM11.373 9.54547C10.6423 10.246 9.64903 10.6317 8.57703 10.6317C7.73214 10.6282 6.90433 10.3933 6.18357 9.95247L2.36523 7.6378V8.55933L6.4203 11.0204C7.06972 11.4179 7.81564 11.6298 8.57703 11.6331C9.50757 11.6331 10.3992 11.3045 11.0571 10.6743C11.538 10.2131 11.8039 9.66127 11.792 9.12467V9.05667C11.6692 9.23411 11.5288 9.39874 11.373 9.54807V9.54547ZM14.4984 10.5066C13.8889 11.0872 13.0912 11.4298 12.2505 11.4722V12.4714C12.9733 12.4313 13.6582 12.1352 14.1825 11.6361C14.7052 11.1365 14.9718 10.5865 14.9666 10.0439V9.9622C14.8295 10.16 14.6726 10.3432 14.4984 10.5092V10.5066ZM11.373 13.9123C10.6423 14.6129 9.64903 14.9985 8.57703 14.9985C7.73208 14.9952 6.90424 14.7601 6.18357 14.319L2.36523 12.0047V12.9262L6.4203 15.3869C7.06969 15.7845 7.81561 15.9965 8.57703 16C9.50757 16 10.3992 15.6714 11.0571 15.0407C11.538 14.58 11.8039 14.0277 11.792 13.4915V13.4247C11.6691 13.6017 11.5287 13.7659 11.373 13.9149V13.9123ZM14.5752 6.0658C14.5499 6.09153 14.5248 6.11733 14.4987 6.14273C14.3743 6.25989 14.2415 6.36785 14.1014 6.46573C13.9637 6.56344 13.8189 6.65079 13.6683 6.72707C13.3594 6.88292 13.0293 6.99252 12.6885 7.05233C12.5139 7.08473 12.3372 7.10434 12.1598 7.111C12.1781 7.17123 12.1937 7.23227 12.2064 7.29393C12.2375 7.44118 12.2518 7.59147 12.249 7.74193V8.10267H12.2511C12.5754 8.0828 12.8947 8.01291 13.1976 7.89547C13.5638 7.75215 13.8985 7.53881 14.183 7.2674C14.2129 7.23873 14.239 7.20913 14.2674 7.18007C14.3747 7.07087 14.4737 6.95379 14.5635 6.8298C14.6551 6.70414 14.7341 6.56981 14.7995 6.42873C14.889 6.23509 14.9436 6.02716 14.9608 5.81453C14.9639 5.7686 14.9682 5.72227 14.9679 5.67633V5.60093C14.941 5.63929 14.913 5.67773 14.8839 5.71627C14.7887 5.8393 14.6855 5.95605 14.5752 6.0658ZM14.5752 8.97533C14.5495 9.00147 14.5264 9.028 14.5006 9.05373C13.891 9.6342 13.0934 9.9768 12.2528 10.0193V11.0152C12.9755 10.9751 13.6604 10.679 14.1847 10.1799C14.4413 9.94159 14.6499 9.65642 14.7993 9.33973C14.8888 9.14619 14.9434 8.93838 14.9606 8.72587C14.9638 8.6796 14.968 8.63367 14.9677 8.58733V8.5056C14.9401 8.5456 14.9132 8.58587 14.8829 8.62547C14.7881 8.74866 14.6853 8.86553 14.5752 8.97533ZM14.5752 7.51907C14.5495 7.5452 14.5264 7.57173 14.5006 7.59747C14.3764 7.71473 14.2437 7.82269 14.1036 7.92047C13.9656 8.01819 13.8204 8.10554 13.6694 8.1818C13.2287 8.40534 12.7462 8.53479 12.2528 8.56193V9.55893C12.9755 9.51866 13.6603 9.22255 14.1847 8.7236C14.2146 8.69487 14.2407 8.6654 14.2691 8.63627C14.3764 8.52707 14.4754 8.40999 14.5652 8.286C14.6561 8.16005 14.7346 8.0255 14.7993 7.88427C14.8888 7.69072 14.9434 7.48292 14.9606 7.2704C14.9638 7.22413 14.968 7.17773 14.9677 7.13187V7.04973C14.9401 7.09 14.9132 7.1304 14.8829 7.16993C14.7881 7.29313 14.6853 7.41 14.5752 7.5198V7.51907Z" fill="#525252"/>
</svg>
