<svg viewBox="0 0 17 16" fill="none" xmlns="http://www.w3.org/2000/svg">
<path d="M8.25 0.197998C3.83 0.197998 0.25 3.78 0.25 8.198C0.25 11.7333 2.542 14.7313 5.72 15.788C6.12 15.8633 6.26667 15.616 6.26667 15.4033C6.26667 15.2133 6.26 14.71 6.25667 14.0433C4.03133 14.526 3.562 12.97 3.562 12.97C3.198 12.0467 2.672 11.8 2.672 11.8C1.94733 11.304 2.728 11.314 2.728 11.314C3.53133 11.37 3.95333 12.138 3.95333 12.138C4.66667 13.3613 5.826 13.008 6.28333 12.8033C6.35533 12.286 6.56133 11.9333 6.79 11.7333C5.01333 11.5333 3.146 10.8453 3.146 7.78C3.146 6.90666 3.456 6.19333 3.96933 5.63333C3.87933 5.43133 3.60933 4.618 4.03933 3.516C4.03933 3.516 4.70933 3.30133 6.23933 4.336C6.87933 4.158 7.55933 4.07 8.23933 4.066C8.91933 4.07 9.59933 4.158 10.2393 4.336C11.7593 3.30133 12.4293 3.516 12.4293 3.516C12.8593 4.618 12.5893 5.43133 12.5093 5.63333C13.0193 6.19333 13.3293 6.90666 13.3293 7.78C13.3293 10.8533 11.4593 11.53 9.67933 11.7267C9.95933 11.9667 10.2193 12.4573 10.2193 13.2067C10.2193 14.2773 10.2093 15.1373 10.2093 15.3973C10.2093 15.6073 10.3493 15.8573 10.7593 15.7773C13.96 14.728 16.25 11.728 16.25 8.198C16.25 3.78 12.668 0.197998 8.25 0.197998Z" fill="currentColor"/>
</svg>
