<?xml version="1.0" encoding="UTF-8"?>
<svg xmlns="http://www.w3.org/2000/svg" version="1.1" viewBox="0 0 300 300">
<g><path style="opacity:1" fill="currentColor" d="M 110.5,45.5 C 135.469,43.7652 156.969,51.4319 175,68.5C 176.719,75.7801 173.885,78.9468 166.5,78C 147.836,59.8978 125.836,54.2311 100.5,61C 90.3524,64.9037 81.3524,70.5704 73.5,78C 66.6759,78.4942 64.1759,75.3276 66,68.5C 78.4849,56.175 93.3182,48.5083 110.5,45.5 Z"/></g>
<g><path style="opacity:1" fill="currentColor" d="M 283.5,51.5 C 283.5,51.8333 283.5,52.1667 283.5,52.5C 283.83,59.5316 283.497,66.5316 282.5,73.5C 266.266,84.5649 252.1,97.8983 240,113.5C 222.37,136.581 206.87,161.081 193.5,187C 202.484,200.177 201.151,212.177 189.5,223C 173.197,231.085 161.364,226.919 154,210.5C 153.206,204.314 153.539,198.314 155,192.5C 144.803,182.637 134.97,172.471 125.5,162C 122.854,161.503 120.187,161.336 117.5,161.5C 111.567,177.628 105.233,193.628 98.5,209.5C 107.798,221.322 107.798,233.155 98.5,245C 91.3207,250.222 83.3207,251.889 74.5,250C 61.822,244.143 56.9887,234.31 60,220.5C 61.6263,217.942 62.6263,215.275 63,212.5C 50.8636,194.195 35.3636,179.528 16.5,168.5C 16.1667,168.5 15.8333,168.5 15.5,168.5C 15.5,161.5 15.5,154.5 15.5,147.5C 20.0319,148.763 24.3653,150.597 28.5,153C 49.2883,166.121 66.455,182.955 80,203.5C 87.1667,186.5 94.3333,169.5 101.5,152.5C 94.5212,139.656 96.5212,128.489 107.5,119C 123.269,112.034 135.103,116.201 143,131.5C 143.702,138.308 143.369,144.974 142,151.5C 150.651,160.984 159.484,170.318 168.5,179.5C 170.833,180.833 173.167,180.833 175.5,179.5C 183.734,163.779 192.567,148.446 202,133.5C 217.586,109.244 236.086,87.4103 257.5,68C 265.378,61.2295 274.044,55.7295 283.5,51.5 Z"/></g>
<g><path style="opacity:1" fill="currentColor" d="M 109.5,68.5 C 129.321,65.6551 146.155,71.3218 160,85.5C 160.621,91.878 157.788,94.378 151.5,93C 130.763,75.0496 110.097,75.0496 89.5,93C 83.1658,94.3286 80.3325,91.8286 81,85.5C 88.8033,76.8538 98.3033,71.1871 109.5,68.5 Z"/></g>
<g><path style="opacity:1" fill="currentColor" d="M 111.5,89.5 C 124.625,87.4864 135.792,91.1531 145,100.5C 145.917,105.327 143.917,107.994 139,108.5C 135.813,106.819 132.646,104.986 129.5,103C 123.949,100.263 118.282,99.9295 112.5,102C 109.328,103.752 106.328,105.752 103.5,108C 96.2574,108.414 94.0907,105.248 97,98.5C 101.343,94.5849 106.177,91.5849 111.5,89.5 Z"/></g>
</svg>
