<svg viewBox="0 0 17 16" fill="none" xmlns="http://www.w3.org/2000/svg">
<path d="M12.0646 8.896C12.1599 8.64933 12.1046 7.48467 11.9166 5.77933L11.9139 5.75267L12.5166 4.132V4.09867C12.5166 3.392 11.6006 1.49867 11.0593 0.492L10.7946 0L10.2346 3.90267L9.89927 4.45533L9.81593 4.42733C9.58193 4.34867 9.12127 4.21667 8.66393 4.21667C8.2306 4.21667 7.80127 4.33067 7.51727 4.42667L7.43393 4.45467L7.09793 3.90333L6.53793 0L6.27393 0.491333C5.7326 1.498 4.8166 3.39133 4.8166 4.09867V4.132L5.41927 5.75333L5.4166 5.77933C5.22793 7.48467 5.1726 8.64933 5.2686 8.89533C5.35527 9.11667 5.6966 9.58933 5.98327 9.96533L5.5706 13.7813L5.98193 14.076L6.36593 10.5233C6.37393 10.7993 6.4086 11.3747 6.54927 11.902L6.28993 14.2967L8.6666 16L11.5193 13.9553L11.7693 13.7767L11.3559 9.95667C11.6413 9.58267 11.9786 9.11533 12.0646 8.896ZM11.0599 1.532C11.5226 2.47067 12.0073 3.58533 12.0406 4.05133L11.7819 4.748C11.1586 3.87467 10.9633 2.454 10.9466 2.324L11.0599 1.532ZM10.3106 6.732C10.8706 6.732 10.4519 7.20667 10.4026 7.26H9.3446C9.4406 7.14 9.80393 6.732 10.3106 6.732ZM10.0093 7.71067C10.0053 7.73883 9.9913 7.76462 9.96988 7.78334C9.94847 7.80206 9.92104 7.81247 9.8926 7.81267C9.89953 7.84396 9.91407 7.87306 9.93494 7.89738C9.95582 7.9217 9.98237 7.94049 10.0122 7.95208C10.0421 7.96368 10.0744 7.96771 10.1062 7.96384C10.138 7.95996 10.1684 7.94829 10.1946 7.92986C10.2208 7.91143 10.2421 7.88681 10.2565 7.85818C10.2709 7.82956 10.2781 7.79782 10.2773 7.76578C10.2765 7.73374 10.2678 7.7024 10.252 7.67452C10.2362 7.64665 10.2137 7.62311 10.1866 7.606H10.5226V7.622C10.5226 7.73914 10.4761 7.85148 10.3932 7.93431C10.3104 8.01713 10.1981 8.06367 10.0809 8.06367C9.9638 8.06367 9.85146 8.01713 9.76863 7.93431C9.6858 7.85148 9.63927 7.73914 9.63927 7.622V7.60533H9.97993L9.9746 7.61C10.0006 7.63533 10.0146 7.67267 10.0093 7.71067ZM8.9266 12.86C8.99127 12.9027 9.05993 12.9367 9.1306 12.964C9.0186 13.0907 8.8646 13.1553 8.66593 13.1553C8.4666 13.1553 8.3126 13.0907 8.20127 12.9633C8.2726 12.9367 8.34127 12.902 8.40527 12.8593C8.47992 12.9157 8.57267 12.9428 8.66593 12.9353C8.7346 12.9353 8.83593 12.9353 8.9266 12.86ZM7.17993 7.71067C7.17596 7.73872 7.16208 7.76442 7.1408 7.78312C7.11953 7.80183 7.09226 7.81231 7.06393 7.81267C7.07086 7.84396 7.0854 7.87306 7.10628 7.89738C7.12715 7.9217 7.1537 7.94049 7.18358 7.95208C7.21346 7.96368 7.24574 7.96771 7.27755 7.96384C7.30937 7.95996 7.33973 7.94829 7.36595 7.92986C7.39217 7.91143 7.41343 7.88681 7.42785 7.85818C7.44227 7.82956 7.4494 7.79782 7.44861 7.76578C7.44781 7.73374 7.43912 7.7024 7.42331 7.67452C7.40749 7.64665 7.38503 7.62311 7.35793 7.606H7.69393V7.622C7.69393 7.73923 7.64737 7.85165 7.56448 7.93454C7.48158 8.01743 7.36916 8.064 7.25193 8.064C7.13471 8.064 7.02228 8.01743 6.93939 7.93454C6.8565 7.85165 6.80993 7.73923 6.80993 7.622V7.60533H7.1506L7.14527 7.61C7.17127 7.63533 7.18527 7.67267 7.17993 7.71067ZM6.9306 7.26C6.88127 7.20667 6.4626 6.732 7.0226 6.732C7.5286 6.732 7.8926 7.14 7.98927 7.26H6.9306ZM5.2986 4.05133C5.33193 3.58533 5.81727 2.47133 6.27927 1.53133L6.4026 2.39133C6.35593 2.71133 6.1406 3.97133 5.5646 4.76467L5.2986 4.05133ZM6.98193 12.06C6.73327 11.38 6.7306 10.4293 6.7306 10.3887V10.324L6.6906 10.2733C6.32327 9.818 5.70593 9.00667 5.61327 8.76867L5.60993 8.75933C5.52727 8.47267 5.6766 6.76133 5.7886 5.75067L5.79393 5.70667L5.66927 5.372L5.71593 5.322C6.03327 4.99067 6.3026 4.51333 6.51793 3.90467L6.6666 3.482L6.74527 4.02867L7.28327 4.91267L7.42993 4.85C7.43593 4.84733 8.0526 4.58333 8.66393 4.58333H8.6666V4.87667H8.66393C8.1226 4.87667 7.55127 5.11667 7.54593 5.11867L7.16527 5.28267L6.63393 4.41067C6.45393 4.824 6.24393 5.16867 6.00727 5.43933L6.09327 5.67067L6.0806 5.78333C5.9206 7.22067 5.8486 8.47933 5.8906 8.67133C5.94793 8.80467 6.23927 9.21267 6.55727 9.62933L7.05593 9.484L7.83593 8.59467L7.9586 10.9C7.95127 10.91 7.77193 11.162 7.77193 11.306C7.77193 11.4627 8.00127 11.6667 8.2286 11.83C8.23193 11.8233 8.23327 11.8167 8.23727 11.81C8.31727 11.6687 8.4206 11.6427 8.46793 11.752C8.4946 11.8133 8.4866 11.998 8.4866 11.998L8.48993 11.9993V12.218C8.48127 12.236 8.2886 12.6673 7.81393 12.6673C7.6306 12.6673 7.18193 12.608 6.98193 12.06ZM8.6726 13.666C8.32127 13.666 7.80793 13.4947 7.7566 13.0313C7.77593 13.032 7.7946 13.0333 7.81393 13.0333C7.85393 13.0333 7.89327 13.0313 7.93193 13.0267C8.0886 13.33 8.37527 13.4267 8.6666 13.4267C8.95727 13.4267 9.24327 13.3293 9.39993 13.0267C9.43927 13.0313 9.47927 13.0333 9.51993 13.0333C9.53927 13.0333 9.55793 13.032 9.5766 13.0313C9.52593 13.4947 9.01993 13.666 8.6726 13.666ZM10.6433 10.2727L10.6026 10.324V10.3887C10.6026 10.4287 10.5999 11.38 10.3513 12.06C10.1513 12.608 9.7026 12.6667 9.51927 12.6667C9.04593 12.6667 8.85127 12.228 8.84327 12.2093V12L8.8466 11.9973C8.8466 11.9973 8.8386 11.8133 8.86527 11.752C8.91193 11.6427 9.01593 11.668 9.09593 11.8107C9.09993 11.8167 9.10193 11.824 9.1046 11.8307C9.33127 11.6667 9.56193 11.4627 9.56193 11.306C9.56193 11.162 9.3826 10.9107 9.37527 10.8993L9.49727 8.59467L10.2773 9.484L11.0773 9.71733C10.9239 9.92 10.7686 10.1167 10.6433 10.2727ZM4.99527 9.00133C4.8486 8.626 4.9806 7.05733 5.11993 5.79L4.52327 4.184V4.09867C4.52327 3.89067 4.5866 3.60933 4.68727 3.294C3.9026 3.46267 3.48193 3.62067 3.48193 3.62067V12.2847L5.26193 13.5607L5.6466 10.006C5.28793 9.52733 5.06793 9.18867 4.99527 9.00133ZM7.56393 4.104C7.86127 4.01333 8.2586 3.924 8.66393 3.924C9.0706 3.924 9.4706 4.014 9.76927 4.104L9.95327 3.802L10.0759 2.94333C10.0759 2.94333 9.21727 2.898 8.67393 2.898C8.16793 2.898 7.69593 2.91533 7.25727 2.94467L7.37993 3.802L7.56393 4.104ZM12.6459 3.29267C12.7466 3.60867 12.8106 3.89 12.8106 4.09933V4.184L12.2139 5.79C12.3526 7.05733 12.4846 8.62533 12.3379 9.002C12.2653 9.188 12.0479 9.52333 11.6926 9.99733L12.0779 13.5553L13.8513 12.2847V3.62133C13.8513 3.62133 13.4299 3.46133 12.6459 3.29267Z" fill="#525252"/>
</svg>
