<svg viewBox="0 0 15 16" fill="none" xmlns="http://www.w3.org/2000/svg">
<path d="M1.41484 16H0.764841C0.748105 15.9566 0.732544 15.9129 0.718175 15.8687C0.574842 15.4247 0.322175 14.8753 0.256842 14.4327C0.159508 13.7767 0.776842 13.74 1.17284 13.456C1.78284 13.016 2.26284 12.7727 2.92418 12.376C3.12084 12.2567 3.71217 11.96 3.77817 11.8233C3.91217 11.5513 3.54817 11.1687 3.45151 10.9567C3.30151 10.6187 3.22151 10.332 3.20084 10C2.65151 9.91333 2.23084 9.582 1.97151 9.21C1.55151 8.59333 1.26084 7.45333 1.62151 6.586C1.65151 6.51733 1.79084 6.38266 1.81151 6.27733C1.85151 6.072 1.74151 5.79733 1.73151 5.57866C1.69151 4.45066 1.92084 3.47866 2.68151 3.13866C2.99017 1.912 4.09017 1.50333 5.13017 0.893997C5.51684 0.665997 5.94618 0.51933 6.39017 0.355997C7.97151 -0.228669 10.4082 -0.11867 11.7195 0.877997C12.2768 1.3 13.1702 2.19133 13.4902 2.83733C14.3315 4.54066 14.2702 7.38733 13.6815 9.46C13.6015 9.74066 13.4882 10.148 13.3262 10.482C13.2142 10.7153 12.8668 11.182 12.9095 11.3887C12.9522 11.598 13.7028 12.1687 13.8642 12.3187C14.1535 12.6 14.7042 12.9687 14.7468 13.3187C14.7935 13.69 14.5815 14.2093 14.4735 14.5687C14.3288 15.0493 14.1828 15.5293 14.0375 15.9893H1.41351L1.41484 16ZM8.81751 13.64C8.45417 13.44 7.91018 13.2253 7.44084 13.1353C6.86084 13.026 6.92084 13.9273 6.94084 14.4647C6.96084 14.8933 7.18084 15.342 7.28084 15.6273C7.33151 15.7587 7.34084 15.9007 7.45151 15.9267C7.65151 15.972 8.31151 15.7093 8.50151 15.6073C8.90151 15.3887 9.21084 15.0447 9.55084 14.8147C9.56151 14.7013 9.56151 14.588 9.57084 14.476C9.34362 14.3627 9.09462 14.2997 8.84084 14.2913C9.05017 14.1913 9.34084 14.1913 9.53084 14.07L9.54151 13.9413C9.21084 13.9213 9.08151 13.772 8.86084 13.6507L8.81751 13.64ZM13.7868 15.5967C13.91 15.2129 14.0134 14.823 14.0968 14.4287C14.1368 14.2373 14.2402 13.8167 14.2155 13.6447C14.1762 13.3387 13.7595 13.112 13.5462 12.9207C13.1568 12.5707 12.9128 12.2707 12.5062 11.9413C12.3402 12.1913 11.9862 12.3513 11.8508 12.5507C12.8155 12.0913 12.9908 14.3007 12.6115 15.0107C12.6715 15.23 12.8722 15.3107 12.9542 15.5007L12.8968 15.6113H13.7568C13.7655 15.6113 13.7768 15.6113 13.7862 15.6207L13.7868 15.5967ZM9.36417 15.5887C9.33084 15.5393 9.29751 15.4987 9.26418 15.4493L9.06351 15.5793H9.36351L9.36417 15.5887ZM11.2108 15.5887C11.2162 15.4493 11.2228 15.3193 11.2308 15.19C10.8775 15.2093 10.6808 14.87 10.4335 14.8387C10.2175 14.8087 10.0335 15.0793 9.75351 14.9687C9.69018 15.0387 9.63151 15.12 9.56417 15.1793C9.66684 15.2993 9.76084 15.4293 9.84684 15.5687H10.3902C10.3995 15.4593 10.4802 15.3787 10.5902 15.3787C10.7002 15.3787 10.7795 15.4593 10.7795 15.5587H11.2195L11.2108 15.5887ZM12.6215 15.5887C12.4122 15.2693 11.9902 14.99 11.5015 15.2187L11.4815 15.5793H12.6215V15.5887ZM6.94817 15.5887L6.87884 15.3593C6.72884 14.8793 6.63884 14.5193 6.60884 14.2393C5.99951 13.9487 5.35884 13.6593 4.83951 13.2887C4.73951 13.2187 4.10017 12.3887 4.01951 12.4187C2.86017 12.8693 1.78017 13.6587 0.810175 14.408C0.980842 14.7793 1.13017 15.1687 1.27017 15.568H6.94018L6.94817 15.5887ZM12.4582 14.18C12.4388 13.8387 12.3488 13.14 12.1382 13.02C11.6982 12.76 10.9075 13.54 10.5782 13.6487C10.6082 13.7487 10.6682 13.8293 10.6782 13.9687C10.8682 13.9193 11.1082 13.9493 11.2768 14.03C11.0775 14.05 10.8575 14.05 10.7275 14.1393C10.6782 14.2693 10.7382 14.4593 10.7082 14.6487C11.1682 14.78 11.7082 14.8507 12.2982 14.87C12.4075 14.7187 12.4482 14.44 12.4388 14.1487L12.4582 14.18ZM9.73818 13.94C9.70884 14.19 9.76884 14.28 9.81818 14.5687C10.6582 14.8293 10.5075 13.4087 9.72818 13.9293L9.73818 13.94ZM5.34018 13C5.04017 13.3047 6.18684 13.7213 6.54951 13.7433C6.54951 13.55 6.65951 13.3673 6.63951 13.23C6.20617 13.1513 5.63818 13.202 5.34284 12.9987L5.34018 13ZM9.05017 13.1433C9.05017 13.172 9.00951 13.1633 9.00484 13.186C9.39151 13.4867 9.68084 13.5493 10.2062 13.526C10.4422 13.3513 10.6528 13.1507 10.9015 12.988C10.3315 13.0373 9.61417 13.3927 9.05218 13.1413L9.05017 13.1433ZM11.3302 1.326C10.2595 0.721997 8.43017 0.26533 7.27951 0.838664C6.35951 1.3 5.09951 2.06533 4.68017 3.03333C5.08017 3.968 4.56951 4.824 4.52951 5.77266C4.51751 6.27733 4.76951 6.71933 4.79017 7.26733C4.65684 7.49266 4.24018 7.52066 3.95018 7.50466C3.85284 7.01866 3.68351 6.472 3.18017 6.418C2.47084 6.34066 1.95017 6.92733 1.92017 7.54C1.88017 8.26 2.47551 9.44933 3.31017 9.37C3.63551 9.33933 3.71551 9.01 4.06951 9.01C4.25951 9.39 3.77284 9.51 3.72084 9.77933C3.71017 9.84933 3.76084 10.12 3.79017 10.2493C3.94551 10.8787 4.28617 11.6893 4.62017 12.1693C5.04351 12.7693 5.87618 12.87 6.77284 12.93C6.93284 12.58 7.52284 12.61 7.91017 12.6993C7.44951 12.5193 7.01951 12.0693 6.66017 11.68C6.25017 11.2293 5.84018 10.74 5.81951 10.16C6.58951 11.2293 7.21951 12.16 8.61951 12.6293C9.67951 12.9793 10.9195 12.46 11.7288 11.89C12.0688 11.6507 12.2695 11.27 12.5088 10.9307C13.4088 9.64 13.8288 7.79066 13.7395 6.00133C13.6995 5.26066 13.6995 4.52066 13.4488 4.03133C13.1895 3.51066 12.3188 3.05066 11.7988 3.51066C11.6988 3.00133 12.2188 2.69066 12.8288 2.87066C12.3888 2.30133 11.9382 1.632 11.3182 1.28133L11.3302 1.326ZM8.55351 9.93066C8.96351 10.96 10.3695 10.8393 11.5568 10.8127C11.5008 10.942 11.3862 11.1027 11.2468 11.156C10.8668 11.3107 9.81684 11.428 9.28884 11.148C8.95151 10.968 8.73951 10.566 8.55418 10.33C8.46284 10.2153 8.02418 9.92466 8.54618 9.924L8.55351 9.93066ZM8.66284 9.35066C9.25818 9.66 10.3428 9.69533 11.1502 9.67066C11.1942 9.84866 11.1942 10.066 11.1955 10.2793C10.1622 10.3327 8.93818 10.0767 8.66617 9.34933H8.66284V9.35066ZM13.1128 8.96C12.7975 9.56 12.3495 10.2247 11.4202 10.2453C11.4048 10.056 11.3902 9.75533 11.4202 9.64266C12.1295 9.574 12.5715 9.212 13.1155 8.96466L13.1128 8.96ZM12.6802 8.51533C12.0002 8.95533 11.2442 9.432 10.1308 9.322C9.89684 9.11533 9.80751 8.65533 10.0375 8.35C10.1582 8.55866 10.0775 8.94 10.4175 8.99666C11.0468 9.10666 11.7762 8.61066 12.2375 8.43666C12.5175 7.96133 12.2068 7.786 11.9575 7.48133C11.4362 6.86133 10.7375 6.08133 10.7562 5.14133C10.9655 4.992 10.9868 5.372 11.0168 5.44133C11.2862 6.08133 11.9662 6.89133 12.4662 7.44133C12.5862 7.58133 12.7862 7.70133 12.8062 7.79066C12.8675 8.05066 12.6368 8.36 12.6668 8.53066L12.6802 8.51533ZM3.72084 8.06533C3.51151 7.94266 3.45884 7.40533 3.20884 7.392C2.85217 7.372 2.91684 8.092 2.91817 8.512C2.67151 8.292 2.62817 7.602 2.80884 7.252C2.60351 7.152 2.51217 7.36133 2.39684 7.44133C2.54351 6.38133 3.95684 6.952 3.72351 8.08133L3.72084 8.06533ZM2.64217 3.99666C2.18551 4.50066 2.28218 5.446 2.33617 6.122C3.16551 5.59866 4.26818 6.162 4.25817 7.05133C4.65484 7.04066 4.40684 6.55533 4.33484 6.24133C4.09951 5.22266 4.72951 4.11666 4.36217 3.18133C3.65284 3.23733 3.06951 3.528 2.64351 3.99133L2.64217 3.99666ZM8.72218 4.73866C8.92684 5.11333 8.99151 5.504 9.28218 5.78533C9.41218 5.912 9.66484 6.068 9.54018 6.41866C9.51018 6.49933 9.29684 6.67933 9.17284 6.71866C8.72351 6.84866 7.67018 6.73866 8.02551 6.17866C8.40084 6.18866 8.90151 6.41866 9.18018 6.14866C8.97084 5.79933 8.59017 5.12866 8.73084 4.72866L8.72218 4.73866ZM12.8542 4.73H12.8995C13.1195 5.17533 13.2995 5.64666 13.5688 6.04C13.3888 6.45866 12.2002 6.83333 12.2202 6.078C12.4802 5.96466 12.9202 6.05466 13.1502 5.91133C13.0215 5.54066 12.8302 5.24066 12.8608 4.73066L12.8542 4.73ZM8.23618 3.652C7.28818 3.432 6.81551 4.04666 6.52951 4.68733C6.27351 4.62466 6.37551 4.27733 6.43951 4.09866C6.60951 3.63133 7.29284 3.01 7.85217 3.09466C8.09151 3.13266 8.41751 3.352 8.23618 3.65066V3.652ZM5.92817 1.062C4.88818 1.35533 3.55484 2.11133 3.12817 3.04466C3.45817 2.998 3.68817 2.83066 4.01484 2.81066C4.13884 2.8 4.30018 2.86 4.44217 2.82066C4.72484 2.75133 4.96218 2.11066 5.17684 1.88066C5.38351 1.65066 5.63351 1.55 5.80351 1.34066C5.91484 1.28066 6.07618 1.29133 6.08351 1.12066C6.03484 1.07066 5.98351 1.03066 5.92884 1.05066L5.92817 1.062Z" fill="currentColor"/>
</svg>
