<svg viewBox="0 0 16 16" fill="none" xmlns="http://www.w3.org/2000/svg">
<path d="M13.0465 11.36L11.7152 10.4827L10.6052 12.3373L9.31388 11.9593L8.17655 13.6953L8.23455 14.242L14.4172 13.102L14.0585 9.23933L13.0465 11.36ZM7.28055 9.69467L8.27255 9.55867C8.43321 9.63067 8.54521 9.65867 8.73721 9.70733C9.03721 9.78533 9.38388 9.86067 9.89788 9.60067C10.0179 9.542 10.2665 9.314 10.3672 9.184L14.4312 8.44667L14.8459 13.4647L7.88321 14.7193L7.28055 9.69467ZM14.8305 7.88667L14.4292 7.96333L13.6585 0L0.525879 1.52333L2.14388 14.652L3.68121 14.4293C3.55855 14.254 3.36721 14.042 3.04121 13.77C2.58788 13.394 2.74788 12.7553 3.01521 12.352C3.36855 11.6707 5.18855 10.804 5.08588 9.71467C5.04855 9.31867 4.98588 8.80267 4.61788 8.44933C4.60455 8.596 4.62921 8.73733 4.62921 8.73733C4.62921 8.73733 4.47788 8.54467 4.40255 8.282C4.32788 8.182 4.26921 8.14933 4.18988 8.01533C4.13321 8.17067 4.14121 8.35067 4.14121 8.35067C4.14121 8.35067 4.01721 8.05933 3.99721 7.81267C3.92388 7.92333 3.90588 8.13267 3.90588 8.13267C3.90588 8.13267 3.74521 7.67267 3.78188 7.42467C3.70855 7.20933 3.49121 6.78133 3.55321 5.80867C3.95321 6.08933 4.83588 6.02267 5.17988 5.516C5.29388 5.34867 5.37188 4.89 5.12255 3.98733C4.96255 3.40867 4.56588 2.54733 4.41188 2.22L4.39321 2.23333C4.47455 2.49667 4.64255 3.04867 4.70655 3.31667C4.90188 4.12867 4.95455 4.41133 4.86255 4.786C4.78521 5.11133 4.59788 5.32467 4.12455 5.56267C3.65121 5.80133 3.02255 5.22 2.98255 5.188C2.52255 4.82133 2.16655 4.22333 2.12655 3.93267C2.08521 3.61467 2.30988 3.424 2.42321 3.164C2.26121 3.21067 2.08055 3.292 2.08055 3.292C2.08055 3.292 2.29588 3.06933 2.56188 2.876C2.67188 2.80333 2.73655 2.75733 2.85255 2.66067C2.75121 2.65897 2.64985 2.65963 2.54855 2.66267C2.54855 2.66267 2.82855 2.51133 3.11855 2.40133C2.90655 2.392 2.70321 2.39933 2.70321 2.39933C2.70321 2.39933 3.32788 2.12 3.82188 1.91467C4.16121 1.776 4.49255 1.81667 4.67921 2.086C4.92388 2.43933 5.18055 2.63067 5.72521 2.75C6.05921 2.60133 6.16055 2.52533 6.58121 2.41067C6.95055 2.004 7.24121 1.952 7.24121 1.952C7.24121 1.952 7.09721 2.084 7.05855 2.292C7.26788 2.126 7.49855 1.98867 7.49855 1.98867C7.49855 1.98867 7.40921 2.098 7.32588 2.27267L7.34588 2.30133C7.58988 2.15467 7.87721 2.03867 7.87721 2.03867C7.87721 2.03867 7.79521 2.14267 7.69855 2.27733C7.88321 2.276 8.25721 2.28533 8.40255 2.302C9.25921 2.32067 9.43721 1.386 9.76588 1.26867C10.1779 1.122 10.3619 1.03333 11.0639 1.722C11.6659 2.314 12.1365 3.37333 11.9032 3.61067C11.7072 3.80733 11.3205 3.534 10.8925 3C10.6486 2.69846 10.4844 2.34034 10.4152 1.95867C10.3701 1.73848 10.2536 1.53932 10.0839 1.392C10.0839 1.392 10.2372 1.732 10.2372 2.032C10.2372 2.196 10.2572 2.80867 10.5199 3.152C10.4939 3.20267 10.4819 3.40133 10.4532 3.43867C10.1479 3.06933 9.49121 2.80533 9.38388 2.72733C9.74655 3.024 10.5792 3.706 10.8992 4.36C11.2012 4.978 11.0232 5.54467 11.1765 5.69133C11.2199 5.73333 11.8272 6.48933 11.9432 6.86933C12.1472 7.532 11.9559 8.228 11.6892 8.65933L10.9445 8.77533C10.8359 8.74533 10.7625 8.73 10.6645 8.67333C10.7179 8.578 10.8252 8.34 10.8265 8.292L10.7845 8.218C10.5525 8.546 10.1645 8.86467 9.84188 9.048C9.41988 9.28733 8.93321 9.25067 8.61655 9.152C7.71788 8.87533 6.86788 8.26733 6.66321 8.108C6.66321 8.108 6.65655 8.23533 6.69521 8.264C6.92188 8.51933 7.44121 8.982 7.94321 9.304L6.87321 9.422L7.37921 13.3607C7.15455 13.3927 7.11921 13.408 6.87455 13.4433C6.65788 12.6787 6.24388 12.18 5.79188 11.8887C5.39255 11.6327 4.84255 11.5753 4.31588 11.6793L4.28255 11.7187C4.71829 11.6712 5.15706 11.7757 5.52455 12.0147C5.96055 12.29 6.31188 13.002 6.44121 13.4307C6.60655 13.9787 6.72121 14.564 6.27588 15.1853C5.95855 15.6267 5.03321 15.8707 4.28521 15.3433C4.48521 15.664 4.75521 15.9273 5.11855 15.9767C5.65788 16.05 6.16988 15.9567 6.52255 15.594C6.82388 15.2847 6.98255 14.638 6.94121 13.9567L7.41721 13.8873L7.58921 15.11L15.4739 14.1607L14.8305 7.88667ZM10.0332 4.56533C10.0105 4.61533 9.97655 4.64867 10.0285 4.812L10.0312 4.82133L10.0399 4.84267L10.0612 4.89133C10.1545 5.08267 10.2579 5.26333 10.4292 5.35533C10.4739 5.348 10.5199 5.34267 10.5672 5.34C10.7285 5.33333 10.8305 5.35867 10.8952 5.39333C10.9012 5.36133 10.9019 5.314 10.8985 5.24533C10.8865 5.00267 10.9465 4.59067 10.4812 4.37333C10.3052 4.292 10.0585 4.31733 9.97655 4.41867C9.98969 4.42028 10.0026 4.42318 10.0152 4.42733C10.1392 4.47133 10.0552 4.514 10.0332 4.56533ZM11.3385 6.82667C11.2772 6.79333 10.9919 6.80667 10.7912 6.83C10.4085 6.87533 9.99588 7.008 9.90588 7.078C9.74121 7.20533 9.81588 7.42667 9.93721 7.518C10.2779 7.77267 10.5772 7.94333 10.8919 7.90133C11.0852 7.876 11.2559 7.57 11.3772 7.292C11.4599 7.1 11.4599 6.89333 11.3385 6.82667ZM7.95388 4.86533C8.06188 4.76267 7.41721 4.62867 6.91655 4.96933C6.54721 5.22133 6.53588 5.76067 6.88921 6.06667C6.92455 6.09733 6.95321 6.11867 6.98055 6.136C7.27489 5.99737 7.58877 5.90474 7.91121 5.86133C7.98655 5.778 8.07321 5.63133 8.05121 5.36467C8.02188 5.00333 7.74788 5.06067 7.95388 4.86533Z" fill="#525252"/>
</svg>
