<svg viewBox="0 0 17 16" fill="none" xmlns="http://www.w3.org/2000/svg">
<path d="M8.5029 0C6.93623 1.59667 6.92623 4.12333 8.59156 5.72333L10.8662 7.99867L8.7349 10.1307C9.33539 10.7341 9.74489 11.5009 9.91229 12.3356C10.0797 13.1702 9.99759 14.0357 9.67623 14.824L16.0536 8.44667C16.1124 8.38785 16.1591 8.31801 16.191 8.24114C16.2228 8.16427 16.2392 8.08188 16.2392 7.99867C16.2392 7.91546 16.2228 7.83306 16.191 7.75619C16.1591 7.67932 16.1124 7.60948 16.0536 7.55067L8.5029 0ZM7.33756 1.16L0.946895 7.55133C0.888035 7.61015 0.841342 7.67999 0.809485 7.75686C0.777628 7.83373 0.76123 7.91612 0.76123 7.99933C0.76123 8.08254 0.777628 8.16494 0.809485 8.24181C0.841342 8.31868 0.888035 8.38852 0.946895 8.44733C3.4669 10.96 5.98023 13.496 8.50023 16C10.0302 14.468 10.0969 11.936 8.4469 10.3113L6.13356 7.99867L8.2669 5.86533C6.98823 4.562 6.69156 2.71533 7.33756 1.16067V1.16Z" fill="currentColor"/>
</svg>
