<svg viewBox="0 0 17 16" fill="none" xmlns="http://www.w3.org/2000/svg">
<path d="M8.75 0C6.62827 0 4.59344 0.842855 3.09315 2.34315C1.59285 3.84344 0.75 5.87827 0.75 8C0.75 10.1217 1.59285 12.1566 3.09315 13.6569C4.59344 15.1571 6.62827 16 8.75 16C10.8717 16 12.9066 15.1571 14.4069 13.6569C15.9071 12.1566 16.75 10.1217 16.75 8C16.75 5.87827 15.9071 3.84344 14.4069 2.34315C12.9066 0.842855 10.8717 0 8.75 0ZM9.178 2.75567C9.81493 2.75567 10.3311 3.273 10.3311 3.91113V9.9556H11.3977C12.4737 9.9556 13.3494 9.07853 13.3494 8.00027C13.3494 6.92207 12.4737 6.04473 11.3977 6.04473H10.9541V4.88893H11.3977C13.1125 4.88893 14.5028 6.28207 14.5028 8.00027C14.5028 9.71853 13.1125 11.1113 11.3977 11.1113H9.178V2.75567ZM6.07247 4.88867H8.29187V13.244C7.65487 13.244 7.13853 12.7267 7.13853 12.0885V6.04413H6.07247C4.99607 6.04413 4.12067 6.92147 4.12067 7.99973C4.12067 9.07807 4.99607 9.95527 6.07247 9.95527H6.51607V11.1107H6.07247C4.35747 11.1107 2.96733 9.71793 2.96733 7.99973C2.96733 6.28167 4.35747 4.88867 6.07247 4.88867Z" fill="currentColor"/>
</svg>
