<svg viewBox="0 0 17 16" fill="none" xmlns="http://www.w3.org/2000/svg">
<path d="M16.0118 7.02733C16.0118 3.14333 12.8625 0 8.98515 0C7.90915 0 6.85781 0.211333 5.87648 0.634667C4.92507 1.03635 4.06081 1.61916 3.33181 2.35067C2.58685 3.09102 1.9961 3.97175 1.59376 4.94191C1.19141 5.91207 0.98546 6.95239 0.987813 8.00267C0.985614 9.05312 1.19163 10.0936 1.59396 11.0639C1.9963 12.0343 2.58696 12.9153 3.33181 13.656C4.06193 14.386 4.92591 14.9684 5.87648 15.3713C6.85781 15.7887 7.90981 16 8.99048 16C10.0305 16 11.0238 15.8 11.9345 15.442L11.3291 13.914C10.5851 14.2102 9.79134 14.3618 8.99048 14.3607C8.15528 14.3626 7.32797 14.199 6.55638 13.8793C5.78479 13.5595 5.08422 13.0901 4.49515 12.498C3.90318 11.9089 3.43384 11.2083 3.11425 10.4367C2.79465 9.6651 2.63113 8.83782 2.63315 8.00267C2.63315 6.30467 3.29715 4.70667 4.49581 3.508C5.08522 2.91636 5.78586 2.44719 6.55737 2.12751C7.32888 1.80783 8.15603 1.64396 8.99115 1.64533C9.96347 1.64524 10.9177 1.9086 11.7523 2.40741C12.5869 2.90622 13.2708 3.62184 13.7313 4.47822C14.1917 5.3346 14.4116 6.29974 14.3674 7.27107C14.3233 8.24239 14.0168 9.1836 13.4805 9.99467L12.0818 6.55133C11.8765 6.046 11.6291 5.288 10.7011 5.288C9.77248 5.288 9.52581 6.052 9.32581 6.55133L8.03915 9.73067L6.31181 5.37067H4.49515L6.64581 10.6707C6.86315 11.2053 7.10448 11.934 8.03915 11.934C8.97248 11.934 9.20781 11.2053 9.42581 10.6707L10.7005 7.52133L11.9811 10.6707C12.2398 11.3227 12.5158 11.934 13.3678 11.934C13.9731 11.934 14.3551 11.546 14.5665 11.294C15.5055 10.0701 16.0137 8.57002 16.0118 7.02733Z" fill="currentColor"/>
</svg>
