<svg viewBox="0 0 20 20" fill="currentColor" xmlns="http://www.w3.org/2000/svg">
<path d="M9.99998 0.25C9.80107 0.25 9.61031 0.329018 9.46965 0.46967C9.329 0.610322 9.24998 0.801088 9.24998 1V6.25C9.24998 6.44891 9.329 6.63968 9.46965 6.78033C9.61031 6.92098 9.80107 7 9.99998 7C10.6604 7.00015 11.3022 7.21819 11.8261 7.6203C12.3499 8.02241 12.7264 8.58613 12.8972 9.22403C13.068 9.86193 13.0236 10.5384 12.7708 11.1484C12.518 11.7585 12.071 12.2681 11.499 12.5982C10.9271 12.9284 10.2622 13.0606 9.60748 12.9743C8.95276 12.8881 8.3448 12.5882 7.87787 12.1212C7.41094 11.6542 7.11114 11.0462 7.02497 10.3915C6.93879 9.73677 7.07105 9.0719 7.40123 8.5C7.4505 8.41469 7.48247 8.3205 7.49533 8.22283C7.50819 8.12516 7.50168 8.02591 7.47617 7.93075C7.45066 7.83559 7.40665 7.7464 7.34667 7.66825C7.28668 7.59011 7.21188 7.52454 7.12655 7.47531L2.57967 4.85031C2.49436 4.80105 2.40018 4.76907 2.3025 4.75622C2.20483 4.74336 2.10558 4.74987 2.01042 4.77538C1.91527 4.80089 1.82607 4.84489 1.74792 4.90488C1.66978 4.96487 1.60422 5.03967 1.55498 5.125C0.481857 6.98371 0.0520159 9.14458 0.332124 11.2725C0.612233 13.4004 1.58664 15.3764 3.10422 16.8941C4.6218 18.4118 6.59776 19.3863 8.72564 19.6665C10.8535 19.9468 13.0144 19.5171 14.8732 18.4441C16.732 17.3711 18.1848 15.7147 19.0063 13.7319C19.8278 11.7491 19.972 9.5506 19.4168 7.47742C18.8615 5.40424 17.6376 3.57222 15.935 2.26547C14.2324 0.958723 12.1462 0.250276 9.99998 0.25ZM2.50842 6.54062L5.78123 8.43062C5.59499 8.93289 5.49976 9.46432 5.49998 10C5.49998 10.1434 5.50748 10.2812 5.52061 10.4237L1.86998 11.4062C1.58529 9.75714 1.80792 8.06046 2.50842 6.54062ZM2.25811 12.8509L5.91436 11.8722C6.22005 12.5385 6.68358 13.1203 7.26481 13.5671C7.84605 14.0139 8.52745 14.3122 9.24998 14.4363V18.2153C7.69732 18.0714 6.217 17.4914 4.97985 16.5422C3.7427 15.593 2.79916 14.3134 2.25811 12.8509ZM10.75 18.2153V14.4363C11.7981 14.2586 12.7495 13.7156 13.4356 12.9035C14.1216 12.0914 14.498 11.0626 14.498 9.99953C14.498 8.93644 14.1216 7.90768 13.4356 7.09557C12.7495 6.28347 11.7981 5.74047 10.75 5.56281V1.78375C12.7995 1.97101 14.7051 2.91756 16.0926 4.43761C17.4801 5.95767 18.2494 7.94144 18.2494 9.99953C18.2494 12.0576 17.4801 14.0414 16.0926 15.5614C14.7051 17.0815 12.7995 18.0281 10.75 18.2153Z" fill="currentColor"/>
</svg>
