<svg viewBox="0 0 14 12" fill="none" xmlns="http://www.w3.org/2000/svg">
<path d="M8.96088 6.91406L13.5837 10.7812L14 11.1094L13.3646 12L12.9484 11.6719L0.416275 1.24219L0 0.890625L0.635368 0.0234375L1.05164 0.351562L5.80595 4.28906L9.07042 0.796875L9.81534 0L10.5383 0.796875L11.8748 2.20312L12.6197 3L11.8748 3.79688L8.96088 6.91406ZM6.6385 4.99219L8.10642 6.23438L9.77152 4.45312L8.43505 3.04688L6.6385 4.99219ZM7.44914 8.53125L4.90767 11.25L2.51956 11.7656L1.40219 12L1.62128 10.8047L2.10329 8.25L4.29421 5.90625L5.12676 6.58594L3.06729 8.8125L2.73865 10.5703L4.38185 10.2188L6.61659 7.82812L7.44914 8.53125Z" fill="currentColor"/>
</svg>
