<svg viewBox="0 0 421 141" fill="none" xmlns="http://www.w3.org/2000/svg">
<g clip-path="url(#clip0_401_78)">
<path d="M70.4507 0C31.5553 0 0 31.5774 0 70.5C0 109.423 31.5553 141 70.4507 141C109.346 141 140.901 109.423 140.901 70.5C140.901 31.5774 109.346 0 70.4507 0ZM35.7824 111.98L60.0633 21.7402H73.5636L49.2827 111.98H35.7824ZM113.311 78.8288L105.938 84.7967L94.2073 71.4837L81.9849 84.7967L74.3172 79.1567L84.0165 64.4337L68.0258 58.1707L70.8766 47.9728L87.752 52.3667L89.161 35.6107H98.7292L100.138 52.3667L116.129 48.3007L119.406 58.1707L103.579 64.4337L113.311 78.8288Z" fill="currentColor"/>
<path d="M211.415 57.9575C210.348 54.1036 206.988 50.631 200.613 50.631C194.85 50.631 190.46 53.3779 190.497 57.3466C190.46 60.7411 192.827 62.8036 198.779 64.1356L208.781 66.2716C219.849 68.6739 225.231 73.7864 225.272 82.1419C225.236 93.2441 214.889 100.832 200.232 100.832C185.841 100.832 176.795 94.4614 175.076 83.7036C175.076 83.7036 174.98 82.8998 174.98 82.3945L188.548 82.4037C189.729 87.6677 193.852 90.4146 200.19 90.4146C206.754 90.4146 211.107 87.4013 211.107 83.3959C211.107 80.0748 208.588 77.9021 203.206 76.7216L193.204 74.6224C181.943 72.2982 176.676 66.6528 176.717 58.1091C176.676 47.2732 186.296 40.3326 200.42 40.3326C214.163 40.3326 222.101 46.6669 224.008 56.5841C224.008 56.5841 224.16 57.2271 224.16 57.9621L211.415 57.9575Z" fill="currentColor"/>
<path d="M226.996 70.7364C226.996 52.6521 237.954 40.3326 254.748 40.3326C269.176 40.3326 281.545 49.3724 281.545 69.9371V74.1723H240.702C240.817 84.2043 246.732 90.0793 255.668 90.0793C261.624 90.0793 266.202 87.484 268.073 82.5277L281.159 82.5415C281.159 83.0468 280.975 83.9792 280.975 83.9792C278.53 94.1628 269.144 100.842 255.475 100.842C237.797 100.832 226.996 89.1239 226.996 70.7364ZM268.298 64.8614C268.22 56.8872 262.879 51.0903 254.937 51.0903C246.691 51.0903 241.157 57.3833 240.739 64.8614H268.298Z" fill="currentColor"/>
<path d="M284.625 41.8117H297.834V50.1166H298.524C300.969 43.4424 306.843 41.0492 314.707 41.0492C322.608 41.0492 328.299 43.4791 330.551 50.1166H331.162C333.759 43.5939 340.249 41.0492 348.761 41.0492C359.526 41.0492 367.082 47.9899 367.082 61.0765V100.405H353.224V63.2124C353.224 55.964 348.798 52.6843 343.223 52.6843C336.544 52.6843 332.61 57.264 332.61 63.8601V100.405H319.06V62.6383C319.06 56.6117 315.052 52.6797 309.21 52.6797C303.253 52.6797 298.446 57.5625 298.446 64.7742V100.405H284.629V41.8117H284.625Z" fill="currentColor"/>
<path d="M370.488 84.6821C370.488 71.4806 381.367 68.086 392.743 66.8688C403.089 65.7618 407.249 65.5734 407.249 61.6047V61.3751C407.249 55.6149 403.737 52.3352 397.325 52.3352C390.569 52.3352 386.676 55.7665 385.301 59.772L372.073 59.7536C372.073 59.1105 372.4 57.9392 372.4 57.9392C375.452 47.2595 384.92 41.7657 397.247 41.7657C408.43 41.7657 421.065 46.4189 421.065 61.9079V101.122H407.782V93.0743H407.322C404.804 97.9938 399.306 102.307 390.109 102.307C378.922 102.307 370.488 96.2024 370.488 84.6821ZM407.286 80.1024V73.1985C405.493 74.65 398.24 75.5641 394.614 76.0602C388.432 76.9376 383.812 79.1516 383.812 84.4524C383.812 89.5281 387.935 92.1602 393.699 92.1602C402.018 92.1556 407.286 86.6251 407.286 80.1024Z" fill="currentColor"/>
</g>
<defs>
<clipPath id="clip0_401_78">
<rect width="421" height="141" fill="currentColor"/>
</clipPath>
</defs>
</svg>
