<svg viewBox="0 0 20 20" fill="none" xmlns="http://www.w3.org/2000/svg">
<path d="M18.8003 5.79625C19.841 7.97294 20.0386 10.458 19.3549 12.7718C18.6712 15.0856 17.1546 17.0641 15.0979 18.3255C13.0412 19.5868 10.5901 20.0417 8.21778 19.6022C5.84545 19.1626 3.72 17.86 2.25166 15.9455C0.783323 14.0311 0.0761749 11.6406 0.266699 9.2354C0.457223 6.83024 1.53191 4.58089 3.28335 2.9215C5.03479 1.26211 7.33883 0.310297 9.75077 0.249771C12.1627 0.189244 14.5116 1.02429 16.344 2.59375L18.4694 0.467499C18.6101 0.326769 18.801 0.247707 19 0.247707C19.199 0.247707 19.3899 0.326769 19.5306 0.467499C19.6713 0.60823 19.7504 0.799101 19.7504 0.998124C19.7504 1.19715 19.6713 1.38802 19.5306 1.52875L10.5306 10.5287C10.3899 10.6695 10.199 10.7485 9.99999 10.7485C9.80096 10.7485 9.61009 10.6695 9.46936 10.5287C9.32863 10.388 9.24957 10.1971 9.24957 9.99813C9.24957 9.7991 9.32863 9.60823 9.46936 9.4675L12.0681 6.86875C11.3638 6.40296 10.5229 6.18849 9.68158 6.26007C8.84023 6.33166 8.04767 6.68509 7.43219 7.26318C6.81671 7.84126 6.41434 8.61014 6.29022 9.44536C6.1661 10.2806 6.3275 11.1332 6.74828 11.8653C7.16907 12.5974 7.82461 13.166 8.60879 13.4792C9.39296 13.7923 10.2599 13.8316 11.0692 13.5908C11.8785 13.3499 12.5828 12.843 13.0682 12.152C13.5535 11.461 13.7914 10.6265 13.7434 9.78344C13.7379 9.68495 13.7518 9.58633 13.7844 9.49321C13.8169 9.4001 13.8675 9.31431 13.9333 9.24075C13.999 9.16719 14.0786 9.10729 14.1674 9.06448C14.2563 9.02168 14.3527 8.99679 14.4512 8.99125C14.6501 8.98006 14.8454 9.04835 14.9939 9.18109C15.0675 9.24681 15.1274 9.32639 15.1702 9.41526C15.213 9.50414 15.2379 9.60057 15.2434 9.69906C15.3118 10.8923 14.971 12.0731 14.2773 13.0464C13.5837 14.0197 12.5786 14.7272 11.4284 15.0519C10.2782 15.3766 9.05159 15.2992 7.95135 14.8323C6.85111 14.3655 5.9431 13.5372 5.37738 12.4844C4.81166 11.4316 4.6221 10.2172 4.84004 9.04208C5.05798 7.86693 5.67037 6.80132 6.57599 6.02137C7.48161 5.24142 8.62625 4.79381 9.82072 4.75254C11.0152 4.71127 12.188 5.07879 13.1453 5.79437L15.2781 3.66156C13.7151 2.36387 11.7278 1.6894 9.69779 1.7677C7.6678 1.84599 5.73832 2.67153 4.27991 4.08575C2.82151 5.49997 1.93702 7.40316 1.79634 9.42978C1.65565 11.4564 2.26869 13.4635 3.5177 15.0657C4.76671 16.6679 6.56362 17.7521 8.56332 18.1101C10.563 18.4681 12.6245 18.0747 14.3518 17.0055C16.0791 15.9362 17.3505 14.2664 17.9217 12.3169C18.4929 10.3673 18.3237 8.2755 17.4465 6.44312C17.3608 6.26361 17.3498 6.05736 17.4161 5.86977C17.4824 5.68217 17.6205 5.52859 17.8 5.44281C17.9795 5.35703 18.1857 5.34608 18.3733 5.41236C18.5609 5.47864 18.7145 5.61673 18.8003 5.79625Z" fill="currentColor"/>
</svg>
