<svg viewBox="0 0 12 12" fill="none" xmlns="http://www.w3.org/2000/svg">
<path d="M0.828125 5.5H0.21875V4.89062V1.23438V0.625H1.4375V1.23438V3.29102L1.94531 2.68164C2.98633 1.4375 4.53516 0.625 6.3125 0.625C9.43555 0.625 12 3.18945 12 6.3125C12 9.46094 9.43555 12 6.3125 12C5.01758 12 3.84961 11.5938 2.88477 10.8828L3.62109 9.89258C4.35742 10.4512 5.29688 10.7812 6.3125 10.7812C8.77539 10.7812 10.7812 8.80078 10.7812 6.3125C10.7812 3.84961 8.77539 1.84375 6.3125 1.84375C4.91602 1.84375 3.69727 2.47852 2.85938 3.46875L2.17383 4.28125H4.48438H5.09375V5.5H4.48438H0.828125Z" fill="currentColor"/>
</svg>
