<svg width="141" height="141" viewBox="0 0 141 141" fill="none" xmlns="http://www.w3.org/2000/svg">
<g clip-path="url(#clip0_401_78)">
<path d="M70.4507 0C31.5553 0 0 31.5774 0 70.5C0 109.423 31.5553 141 70.4507 141C109.346 141 140.901 109.423 140.901 70.5C140.901 31.5774 109.346 0 70.4507 0ZM35.7824 111.98L60.0633 21.7402H73.5636L49.2827 111.98H35.7824ZM113.311 78.8288L105.938 84.7967L94.2073 71.4837L81.9849 84.7967L74.3172 79.1567L84.0165 64.4337L68.0258 58.1707L70.8766 47.9728L87.752 52.3667L89.161 35.6107H98.7292L100.138 52.3667L116.129 48.3007L119.406 58.1707L103.579 64.4337L113.311 78.8288Z" fill="#F4F4F4"/>
</g>
<defs>
<clipPath id="clip0_401_78">
<rect width="141" height="141" fill="white"/>
</clipPath>
</defs>
</svg>
